<svg width="21" height="21" viewBox="0 0 21 21" fill="none" xmlns="http://www.w3.org/2000/svg">
<path d="M2.625 0H18.375C19.824 0 21 1.176 21 2.625V18.375C21 19.0712 20.7234 19.7389 20.2312 20.2312C19.7389 20.7234 19.0712 21 18.375 21H2.625C1.92881 21 1.26113 20.7234 0.76884 20.2312C0.27656 19.7389 0 19.0712 0 18.375V2.625C0 1.176 1.176 0 2.625 0ZM2.25 2.625V18.375C2.25 18.582 2.418 18.75 2.625 18.75H18.375C18.4745 18.75 18.5698 18.7105 18.6402 18.6402C18.7105 18.5698 18.75 18.4745 18.75 18.375V2.625C18.75 2.52554 18.7105 2.43016 18.6402 2.35984C18.5698 2.28951 18.4745 2.25 18.375 2.25H2.625C2.52554 2.25 2.43016 2.28951 2.35984 2.35984C2.28951 2.43016 2.25 2.52554 2.25 2.625Z" fill="#2563EB"/>
</svg>
