<svg width="16" height="16" viewBox="0 0 16 16" fill="none" xmlns="http://www.w3.org/2000/svg">
<path opacity="0.7" fill-rule="evenodd" clip-rule="evenodd" d="M1.92418 2.61302C2.76048 1.76093 3.86053 1.33333 4.96663 1.33333C6.06316 1.33333 7.15993 1.75352 7.99994 2.59047C8.83951 1.75396 9.93605 1.33333 11.0266 1.33333C12.1387 1.33333 13.239 1.76048 14.0757 2.61302L14.0768 2.61409C15.7493 4.32587 15.7508 7.07376 14.0757 8.78033L13.6214 9.24128L8.48193 14.4674C8.35666 14.5948 8.1855 14.6666 8.00683 14.6667C7.82817 14.6667 7.65696 14.5951 7.5316 14.4678L1.92528 8.77476C0.248451 7.07397 0.251301 4.32516 1.92312 2.61409L1.92418 2.61302ZM7.07245 3.54864C6.48845 2.95948 5.72769 2.66666 4.96663 2.66666C4.2063 2.66666 3.45324 2.95888 2.87628 3.54644C1.70873 4.74196 1.71197 6.65951 2.87465 7.83856L8.00628 13.0495L12.6713 8.30588L13.1242 7.84633V7.84633C14.2885 6.65973 14.2905 4.74127 13.1237 3.54646C12.5471 2.95934 11.7943 2.66666 11.0266 2.66666C10.2729 2.66666 9.51186 2.95904 8.92742 3.54864L8.92686 3.5492L8.47477 4.00795C8.34948 4.13508 8.17844 4.20666 7.99994 4.20666C7.82144 4.20666 7.6504 4.13508 7.5251 4.00795L7.07301 3.5492L7.07245 3.54864Z" fill="#1E1E1E"/>
</svg>
