<svg width="14" height="14" viewBox="0 0 14 14" fill="none" xmlns="http://www.w3.org/2000/svg">
<path d="M9.26864 9.97614L13.1526 13.8596C13.2469 13.9507 13.3732 14.0011 13.5043 14C13.6354 13.9988 13.7608 13.9463 13.8536 13.8536C13.9463 13.7608 13.9988 13.6354 14 13.5043C14.0011 13.3732 13.9507 13.2469 13.8596 13.1526L0.859644 0.152644C0.813521 0.104889 0.758348 0.0667979 0.697346 0.0405934C0.636344 0.0143889 0.570734 0.000595787 0.504345 1.88784e-05C0.437955 -0.00055803 0.372115 0.0120928 0.310667 0.0372333C0.249219 0.0623737 0.193393 0.0995003 0.146447 0.146447C0.0995003 0.193393 0.0623737 0.249219 0.0372333 0.310667C0.0120928 0.372115 -0.00055803 0.437955 1.88784e-05 0.504345C0.000595787 0.570734 0.0143889 0.636344 0.0405934 0.697346C0.0667979 0.758348 0.104889 0.813521 0.152644 0.859644L2.74764 3.45464C0.752644 5.02964 0.0356441 7.32964 0.0256441 7.36614C-0.0543559 7.63114 0.0956441 7.90614 0.360644 7.98614C0.625644 8.06614 0.905644 7.91614 0.985644 7.65114C1.02214 7.52414 1.66464 5.48964 3.44864 4.15614L5.03614 5.74364C4.72581 6.01377 4.47436 6.34484 4.29742 6.71628C4.12048 7.08772 4.02183 7.49158 4.00761 7.90276C3.99338 8.31395 4.06389 8.72366 4.21474 9.10644C4.36559 9.48921 4.59357 9.83687 4.88449 10.1278C5.17542 10.4187 5.52307 10.6467 5.90585 10.7975C6.28863 10.9484 6.69834 11.0189 7.10952 11.0047C7.52071 10.9905 7.92457 10.8918 8.29601 10.7149C8.66745 10.5379 8.99852 10.2865 9.26864 9.97614ZM6.78264 5.01414L9.99764 8.22964C10.0033 8.15564 10.0061 8.08114 10.0061 8.00614C10.0062 7.59332 9.92103 7.18493 9.756 6.80652C9.59097 6.42812 9.34961 6.08785 9.04704 5.807C8.74447 5.52616 8.38718 5.31078 7.99755 5.17436C7.60792 5.03793 7.19432 4.98339 6.78264 5.01414ZM4.30114 2.53264L5.07364 3.30614C5.69685 3.10308 6.34871 3.00178 7.00414 3.00614C11.5566 3.00614 12.9616 7.45764 13.0231 7.65114C13.0881 7.86614 13.2881 8.00614 13.5031 8.00614V8.00114C13.581 8.00188 13.658 7.98429 13.7278 7.94979C13.7976 7.9153 13.8583 7.86486 13.905 7.80257C13.9518 7.74027 13.9832 7.66785 13.9967 7.59117C14.0103 7.51449 14.0057 7.43569 13.9831 7.36114C13.9676 7.31114 12.3126 2.00614 7.00364 2.00614C5.96864 2.00614 5.07264 2.20764 4.30064 2.53264" fill="black"/>
</svg>
