<svg width="20" height="20" viewBox="0 0 20 20" fill="none" xmlns="http://www.w3.org/2000/svg">
<path d="M10 0.588236C7.05882 0.588236 4.70588 2.94118 4.70588 5.88235V8.23529C3.70588 8.23529 2.94118 9 2.94118 10V17.6471C2.94118 18.6471 3.70588 19.4118 4.70588 19.4118H15.2941C16.2941 19.4118 17.0588 18.6471 17.0588 17.6471V10C17.0588 9 16.2941 8.23529 15.2941 8.23529V5.88235C15.2941 2.94118 12.9412 0.588236 10 0.588236ZM15.8824 10V17.6471C15.8824 18 15.6471 18.2353 15.2941 18.2353H4.70588C4.35294 18.2353 4.11765 18 4.11765 17.6471V10C4.11765 9.64706 4.35294 9.41177 4.70588 9.41177H5.29412H14.7059H15.2941C15.6471 9.41177 15.8824 9.64706 15.8824 10ZM5.88235 8.23529V5.88235C5.88235 3.58824 7.70588 1.76471 10 1.76471C12.2941 1.76471 14.1176 3.58824 14.1176 5.88235V8.23529H5.88235Z" fill="#2563EB"/>
<path d="M10 11.1765C9 11.1765 8.23529 11.9412 8.23529 12.9412C8.23529 13.7059 8.70588 14.3529 9.41176 14.5882V15.8824C9.41176 16.2353 9.64706 16.4706 10 16.4706C10.3529 16.4706 10.5882 16.2353 10.5882 15.8824V14.5882C11.2941 14.3529 11.7647 13.7059 11.7647 12.9412C11.7647 11.9412 11 11.1765 10 11.1765ZM10 13.5294C9.64706 13.5294 9.41176 13.2941 9.41176 12.9412C9.41176 12.5882 9.64706 12.3529 10 12.3529C10.3529 12.3529 10.5882 12.5882 10.5882 12.9412C10.5882 13.2941 10.3529 13.5294 10 13.5294Z" fill="#2563EB"/>
</svg>
