<svg width="21" height="21" viewBox="0 0 21 21" fill="none" xmlns="http://www.w3.org/2000/svg">
<path d="M2.625 0H18.375C19.824 0 21 1.176 21 2.625V18.375C21 19.0712 20.7234 19.7389 20.2312 20.2312C19.7389 20.7234 19.0712 21 18.375 21H2.625C1.92881 21 1.26113 20.7234 0.76884 20.2312C0.27656 19.7389 0 19.0712 0 18.375V2.625C0 1.176 1.176 0 2.625 0ZM2.25 2.625V18.375C2.25 18.582 2.418 18.75 2.625 18.75H18.375C18.4745 18.75 18.5698 18.7105 18.6402 18.6402C18.7105 18.5698 18.75 18.4745 18.75 18.375V2.625C18.75 2.52554 18.7105 2.43016 18.6402 2.35984C18.5698 2.28951 18.4745 2.25 18.375 2.25H2.625C2.52554 2.25 2.43016 2.28951 2.35984 2.35984C2.28951 2.43016 2.25 2.52554 2.25 2.625ZM16.17 7.92L9.42 14.67C9.2091 14.8807 8.9231 14.999 8.625 14.999C8.32687 14.999 8.04094 14.8807 7.83 14.67L4.83 11.67C4.63104 11.4568 4.52265 11.1746 4.52768 10.883C4.53272 10.5915 4.65079 10.3132 4.857 10.107C5.06322 9.9008 5.34146 9.7827 5.63304 9.7777C5.92463 9.7726 6.20678 9.881 6.42 10.08L8.625 12.285L14.58 6.33C14.7932 6.13104 15.0754 6.02265 15.367 6.02768C15.6585 6.03272 15.9368 6.15079 16.143 6.357C16.3492 6.56322 16.4673 6.84146 16.4723 7.13304C16.4774 7.42463 16.369 7.70678 16.17 7.92Z" fill="#2563EB"/>
</svg>
