<svg width="16" height="12" viewBox="0 0 16 12" fill="none" xmlns="http://www.w3.org/2000/svg">
<g filter="url(#filter0_d_3205_1489)">
<path d="M2.98388 4.625V4.628C2.96704 4.69151 2.93785 4.75109 2.89797 4.80331C2.85809 4.85553 2.80831 4.89938 2.75147 4.93235C2.69463 4.96532 2.63185 4.98677 2.56672 4.99546C2.50159 5.00415 2.43538 4.99991 2.37188 4.983C1.94088 4.869 2.01688 4.372 2.01688 4.372L2.03488 4.31C2.03488 4.31 2.06088 4.226 2.08188 4.165C2.33851 3.44549 2.71628 2.77516 3.19888 2.183C4.09588 1.089 5.60489 0 7.99989 0C10.3949 0 11.9039 1.089 12.8019 2.183C13.2845 2.77516 13.6623 3.44549 13.9189 4.165C13.9404 4.22683 13.9604 4.28919 13.9789 4.352L13.9819 4.365V4.369L13.9829 4.371C14.0146 4.49827 13.995 4.6329 13.9284 4.74588C13.8618 4.85886 13.7535 4.94114 13.6267 4.97498C13.5 5.00883 13.3651 4.99153 13.251 4.92681C13.1369 4.86209 13.0528 4.75513 13.0169 4.629L13.0159 4.625L13.0079 4.6L12.9729 4.491C12.7549 3.88352 12.4354 3.31748 12.0279 2.817C11.2859 1.912 10.0449 1 7.99989 1C5.95489 1 4.71488 1.912 3.97188 2.817C3.56439 3.31748 3.24484 3.88352 3.02688 4.491L2.99189 4.6L2.98388 4.625ZM5.49988 5.5C5.49988 4.83696 5.76328 4.20107 6.23212 3.73223C6.70096 3.26339 7.33684 3 7.99989 3C8.66293 3 9.29881 3.26339 9.76765 3.73223C10.2365 4.20107 10.4999 4.83696 10.4999 5.5C10.4999 6.16304 10.2365 6.79893 9.76765 7.26777C9.29881 7.73661 8.66293 8 7.99989 8C7.33684 8 6.70096 7.73661 6.23212 7.26777C5.76328 6.79893 5.49988 6.16304 5.49988 5.5Z" fill="black"/>
</g>
<defs>
<filter id="filter0_d_3205_1489" x="-1.98828" y="0" width="19.9861" height="16" filterUnits="userSpaceOnUse" color-interpolation-filters="sRGB">
<feFlood flood-opacity="0" result="BackgroundImageFix"/>
<feColorMatrix in="SourceAlpha" type="matrix" values="0 0 0 0 0 0 0 0 0 0 0 0 0 0 0 0 0 0 127 0" result="hardAlpha"/>
<feOffset dy="4"/>
<feGaussianBlur stdDeviation="2"/>
<feComposite in2="hardAlpha" operator="out"/>
<feColorMatrix type="matrix" values="0 0 0 0 0 0 0 0 0 0 0 0 0 0 0 0 0 0 0.25 0"/>
<feBlend mode="normal" in2="BackgroundImageFix" result="effect1_dropShadow_3205_1489"/>
<feBlend mode="normal" in="SourceGraphic" in2="effect1_dropShadow_3205_1489" result="shape"/>
</filter>
</defs>
</svg>
